<svg width="14" height="10" viewBox="0 0 14 10" fill="none" xmlns="http://www.w3.org/2000/svg">
<path d="M3.9 9.4121C3.15466 9.4121 2.48733 9.2301 1.898 8.8661C1.30866 8.49344 0.844996 7.9561 0.506996 7.2541C0.168996 6.5521 -3.77372e-06 5.70277 -3.77372e-06 4.7061C-3.77372e-06 3.70944 0.168996 2.8601 0.506996 2.1581C0.844996 1.4561 1.30866 0.923103 1.898 0.559103C2.48733 0.186437 3.15466 0.000103354 3.9 0.000103354C4.654 0.000103354 5.32133 0.186437 5.902 0.559103C6.49133 0.923103 6.955 1.4561 7.293 2.1581C7.631 2.8601 7.8 3.70944 7.8 4.7061C7.8 5.70277 7.631 6.5521 7.293 7.2541C6.955 7.9561 6.49133 8.49344 5.902 8.8661C5.32133 9.2301 4.654 9.4121 3.9 9.4121ZM3.9 7.6311C4.25533 7.6311 4.563 7.53144 4.823 7.3321C5.09166 7.13277 5.29966 6.81644 5.447 6.3831C5.603 5.94977 5.681 5.39077 5.681 4.7061C5.681 4.02144 5.603 3.46244 5.447 3.0291C5.29966 2.59577 5.09166 2.27944 4.823 2.0801C4.563 1.88077 4.25533 1.7811 3.9 1.7811C3.55333 1.7811 3.24566 1.88077 2.977 2.0801C2.717 2.27944 2.509 2.59577 2.353 3.0291C2.20566 3.46244 2.132 4.02144 2.132 4.7061C2.132 5.39077 2.20566 5.94977 2.353 6.3831C2.509 6.81644 2.717 7.13277 2.977 7.3321C3.24566 7.53144 3.55333 7.6311 3.9 7.6311ZM11.2165 9.2561V0.936103L12.1265 1.8461H9.39646V0.156103H13.3225V9.2561H11.2165Z" fill="#919191"/>
</svg>
