<svg width="17" height="10" viewBox="0 0 17 10" fill="none" xmlns="http://www.w3.org/2000/svg">
<path d="M3.90001 9.4121C3.15468 9.4121 2.48735 9.2301 1.89801 8.8661C1.30868 8.49344 0.845012 7.9561 0.507011 7.2541C0.169011 6.5521 1.14851e-05 5.70277 1.14851e-05 4.7061C1.14851e-05 3.70944 0.169011 2.8601 0.507011 2.1581C0.845012 1.4561 1.30868 0.923103 1.89801 0.559103C2.48735 0.186437 3.15468 0.000103354 3.90001 0.000103354C4.65401 0.000103354 5.32135 0.186437 5.90201 0.559103C6.49135 0.923103 6.95501 1.4561 7.29301 2.1581C7.63101 2.8601 7.80001 3.70944 7.80001 4.7061C7.80001 5.70277 7.63101 6.5521 7.29301 7.2541C6.95501 7.9561 6.49135 8.49344 5.90201 8.8661C5.32135 9.2301 4.65401 9.4121 3.90001 9.4121ZM3.90001 7.6311C4.25535 7.6311 4.56301 7.53144 4.82301 7.3321C5.09168 7.13277 5.29968 6.81644 5.44701 6.3831C5.60301 5.94977 5.68101 5.39077 5.68101 4.7061C5.68101 4.02144 5.60301 3.46244 5.44701 3.0291C5.29968 2.59577 5.09168 2.27944 4.82301 2.0801C4.56301 1.88077 4.25535 1.7811 3.90001 1.7811C3.55335 1.7811 3.24568 1.88077 2.97701 2.0801C2.71701 2.27944 2.50901 2.59577 2.35301 3.0291C2.20568 3.46244 2.13201 4.02144 2.13201 4.7061C2.13201 5.39077 2.20568 5.94977 2.35301 6.3831C2.50901 6.81644 2.71701 7.13277 2.97701 7.3321C3.24568 7.53144 3.55335 7.6311 3.90001 7.6311ZM9.73447 9.2561V7.8911L13.2445 4.5761C13.5218 4.32477 13.7255 4.09944 13.8555 3.9001C13.9855 3.70077 14.0721 3.51877 14.1155 3.3541C14.1675 3.18944 14.1935 3.03777 14.1935 2.8991C14.1935 2.5351 14.0678 2.25777 13.8165 2.0671C13.5738 1.86777 13.2141 1.7681 12.7375 1.7681C12.3561 1.7681 12.0008 1.84177 11.6715 1.9891C11.3508 2.13644 11.0778 2.3661 10.8525 2.6781L9.31847 1.6901C9.66514 1.1701 10.1505 0.758436 10.7745 0.455103C11.3985 0.15177 12.1178 0.000103354 12.9325 0.000103354C13.6085 0.000103354 14.1978 0.11277 14.7005 0.338103C15.2118 0.55477 15.6061 0.862437 15.8835 1.2611C16.1695 1.65977 16.3125 2.13644 16.3125 2.6911C16.3125 2.98577 16.2735 3.28044 16.1955 3.5751C16.1261 3.8611 15.9788 4.16444 15.7535 4.4851C15.5368 4.80577 15.2161 5.16544 14.7915 5.5641L11.8795 8.3071L11.4765 7.5401H16.6115V9.2561H9.73447Z" fill="#919191"/>
</svg>
