<svg width="17" height="10" viewBox="0 0 17 10" fill="none" xmlns="http://www.w3.org/2000/svg">
<path d="M3.89998 9.4121C3.15465 9.4121 2.48731 9.2301 1.89798 8.8661C1.30865 8.49344 0.844981 7.9561 0.506981 7.2541C0.168981 6.5521 -1.90325e-05 5.70277 -1.90325e-05 4.7061C-1.90325e-05 3.70944 0.168981 2.8601 0.506981 2.1581C0.844981 1.4561 1.30865 0.923103 1.89798 0.559103C2.48731 0.186437 3.15465 0.000103354 3.89998 0.000103354C4.65398 0.000103354 5.32131 0.186437 5.90198 0.559103C6.49131 0.923103 6.95498 1.4561 7.29298 2.1581C7.63098 2.8601 7.79998 3.70944 7.79998 4.7061C7.79998 5.70277 7.63098 6.5521 7.29298 7.2541C6.95498 7.9561 6.49131 8.49344 5.90198 8.8661C5.32131 9.2301 4.65398 9.4121 3.89998 9.4121ZM3.89998 7.6311C4.25531 7.6311 4.56298 7.53144 4.82298 7.3321C5.09165 7.13277 5.29965 6.81644 5.44698 6.3831C5.60298 5.94977 5.68098 5.39077 5.68098 4.7061C5.68098 4.02144 5.60298 3.46244 5.44698 3.0291C5.29965 2.59577 5.09165 2.27944 4.82298 2.0801C4.56298 1.88077 4.25531 1.7811 3.89998 1.7811C3.55331 1.7811 3.24565 1.88077 2.97698 2.0801C2.71698 2.27944 2.50898 2.59577 2.35298 3.0291C2.20565 3.46244 2.13198 4.02144 2.13198 4.7061C2.13198 5.39077 2.20565 5.94977 2.35298 6.3831C2.50898 6.81644 2.71698 7.13277 2.97698 7.3321C3.24565 7.53144 3.55331 7.6311 3.89998 7.6311ZM12.6873 9.4121C12.0546 9.4121 11.4263 9.32977 10.8023 9.1651C10.1783 8.99177 9.6496 8.7491 9.21627 8.4371L10.0353 6.8251C10.3819 7.07644 10.7849 7.27577 11.2443 7.4231C11.7036 7.57044 12.1673 7.6441 12.6353 7.6441C13.1639 7.6441 13.5799 7.5401 13.8833 7.3321C14.1866 7.1241 14.3383 6.8381 14.3383 6.4741C14.3383 6.12744 14.2039 5.85444 13.9353 5.6551C13.6666 5.45577 13.2333 5.3561 12.6353 5.3561H11.6733V3.9651L14.2083 1.0921L14.4423 1.8461H9.67127V0.156103H16.0413V1.5211L13.5193 4.3941L12.4533 3.7831H13.0643C14.1823 3.7831 15.0273 4.03444 15.5993 4.5371C16.1713 5.03977 16.4573 5.68544 16.4573 6.4741C16.4573 6.98544 16.3229 7.46644 16.0543 7.9171C15.7856 8.3591 15.3739 8.71877 14.8193 8.9961C14.2646 9.27344 13.5539 9.4121 12.6873 9.4121Z" fill="#919191"/>
</svg>
