<svg width="19" height="10" viewBox="0 0 19 10" fill="none" xmlns="http://www.w3.org/2000/svg">
<path d="M3.90004 9.4121C3.15471 9.4121 2.48738 9.2301 1.89804 8.8661C1.30871 8.49344 0.845042 7.9561 0.507042 7.2541C0.169042 6.5521 4.20026e-05 5.70277 4.20026e-05 4.7061C4.20026e-05 3.70944 0.169042 2.8601 0.507042 2.1581C0.845042 1.4561 1.30871 0.923103 1.89804 0.559103C2.48738 0.186437 3.15471 0.000103354 3.90004 0.000103354C4.65404 0.000103354 5.32138 0.186437 5.90204 0.559103C6.49138 0.923103 6.95504 1.4561 7.29304 2.1581C7.63104 2.8601 7.80004 3.70944 7.80004 4.7061C7.80004 5.70277 7.63104 6.5521 7.29304 7.2541C6.95504 7.9561 6.49138 8.49344 5.90204 8.8661C5.32138 9.2301 4.65404 9.4121 3.90004 9.4121ZM3.90004 7.6311C4.25538 7.6311 4.56304 7.53144 4.82304 7.3321C5.09171 7.13277 5.29971 6.81644 5.44704 6.3831C5.60304 5.94977 5.68104 5.39077 5.68104 4.7061C5.68104 4.02144 5.60304 3.46244 5.44704 3.0291C5.29971 2.59577 5.09171 2.27944 4.82304 2.0801C4.56304 1.88077 4.25538 1.7811 3.90004 1.7811C3.55338 1.7811 3.24571 1.88077 2.97704 2.0801C2.71704 2.27944 2.50904 2.59577 2.35304 3.0291C2.20571 3.46244 2.13204 4.02144 2.13204 4.7061C2.13204 5.39077 2.20571 5.94977 2.35304 6.3831C2.50904 6.81644 2.71704 7.13277 2.97704 7.3321C3.24571 7.53144 3.55338 7.6311 3.90004 7.6311ZM9.75928 7.3451V5.9281L14.0493 0.156103H16.2593L12.0603 5.9281L11.0333 5.6291H18.1963V7.3451H9.75928ZM14.6603 9.2561V7.3451L14.7253 5.6291V3.9261H16.7143V9.2561H14.6603Z" fill="#919191"/>
</svg>
