<svg width="59" height="59" viewBox="0 0 59 59" fill="none" xmlns="http://www.w3.org/2000/svg">
<rect width="59" height="59" fill="white"/>
<path d="M45.7363 40.4112C45.7363 40.9989 45.6032 41.6029 45.3203 42.1905C45.0374 42.7782 44.6713 43.3332 44.1888 43.8556C43.3734 44.7371 42.4748 45.3738 41.4598 45.7819C40.4614 46.19 39.3798 46.4022 38.2149 46.4022C36.5176 46.4022 34.7039 46.0104 32.7902 45.2105C30.8766 44.4106 28.963 43.3332 27.066 41.9783C25.1524 40.6071 23.3386 39.0889 21.608 37.4075C19.8941 35.7098 18.3466 33.9305 16.9654 32.0695C15.6009 30.2085 14.5027 28.3476 13.704 26.5029C12.9052 24.642 12.5059 22.8626 12.5059 21.1649C12.5059 20.0549 12.7055 18.9938 13.1049 18.0143C13.5043 17.0186 14.1366 16.1044 15.0185 15.2882C16.0835 14.2598 17.2483 13.7537 18.4797 13.7537C18.9456 13.7537 19.4115 13.8517 19.8275 14.0476C20.2602 14.2435 20.6429 14.5373 20.9424 14.9617L24.803 20.2997C25.1025 20.7078 25.3188 21.0833 25.4686 21.4424C25.6183 21.7852 25.7015 22.1281 25.7015 22.4382C25.7015 22.83 25.585 23.2218 25.3521 23.5972C25.1358 23.9727 24.8196 24.3645 24.4202 24.7563L23.1556 26.0459C22.9725 26.2254 22.8893 26.4377 22.8893 26.6988C22.8893 26.8294 22.906 26.9437 22.9393 27.0743C22.9892 27.2049 23.0391 27.3028 23.0724 27.4008C23.3719 27.9395 23.8877 28.6414 24.6199 29.4903C25.3687 30.3391 26.1674 31.2043 27.0327 32.0695C27.9313 32.9347 28.7966 33.7346 29.6785 34.4692C30.5438 35.1874 31.2593 35.6772 31.8251 35.971C31.9083 36.0037 32.0082 36.0526 32.1246 36.1016C32.2578 36.1506 32.3909 36.1669 32.5406 36.1669C32.8235 36.1669 33.0398 36.0689 33.2229 35.8894L34.4875 34.6651C34.9035 34.257 35.3029 33.9468 35.6856 33.7509C36.0684 33.5224 36.4511 33.4081 36.8671 33.4081C37.1833 33.4081 37.5161 33.4734 37.8821 33.6203C38.2482 33.7672 38.6309 33.9794 39.047 34.257L44.5549 38.0932C44.9875 38.387 45.287 38.7298 45.4701 39.1379C45.6365 39.546 45.7363 39.9541 45.7363 40.4112Z" stroke="#DEAD68" stroke-width="2.5" stroke-miterlimit="10"/>
<path opacity="0.4" d="M39.9618 25.1807C39.9618 24.2013 39.1797 22.6994 38.0149 21.4751C36.9499 20.3487 35.5355 19.4672 34.1377 19.4672" stroke="#DEAD68" stroke-width="2.5" stroke-linecap="round" stroke-linejoin="round"/>
<path opacity="0.4" d="M45.7858 25.1807C45.7858 18.8632 40.5774 13.7537 34.1377 13.7537" stroke="#DEAD68" stroke-width="2.5" stroke-linecap="round" stroke-linejoin="round"/>
</svg>
